<svg width="22" height="22" viewBox="0 0 22 22" fill="none" xmlns="http://www.w3.org/2000/svg">
<path d="M20.1668 10.9999C20.1668 16.0625 16.0627 20.1666 11.0002 20.1666C5.93761 20.1666 1.8335 16.0625 1.8335 10.9999C1.8335 5.93736 5.93761 1.83325 11.0002 1.83325C16.0627 1.83325 20.1668 5.93736 20.1668 10.9999Z" fill="white"/>
<path d="M9.62858 12.9579C9.58322 12.8392 9.48475 12.4847 9.48475 12.135C9.48475 10.1435 11.5353 10.0671 11.5353 8.59003C11.5353 7.65964 10.6163 7.60235 10.4516 7.60235C9.40777 7.60235 8.59315 8.19914 8.25 8.50111V6.43682C8.60211 6.22616 9.40777 5.80542 10.6915 5.80542C13.6647 5.80542 13.7023 7.84882 13.7023 8.28746C13.7023 10.6466 11.268 10.8214 11.268 12.3337C11.268 12.6488 11.3819 12.8797 11.4321 12.9573H9.62858V12.9579ZM10.6288 16.1997C10.063 16.1997 9.46446 15.847 9.46446 15.1607C9.46446 14.475 10.0863 14.1342 10.6288 14.1342C11.1713 14.1342 11.774 14.4386 11.774 15.1607C11.774 15.8834 11.1951 16.1997 10.6288 16.1997Z" fill="#B97767"/>
</svg>
